<svg id="Capa_1" xmlns="http://www.w3.org/2000/svg" viewBox="0 0 512 512"><style>.st0{display:none;fill:#fff}.st1{fill:#262626}</style><g id="KCxbNL.tif"><path class="st0" d="M487.6 486.9H25.3V24.6h462.3v462.3zm-.8-231.5C486.7 128.7 384 25.9 257.2 25.8 130.5 25.7 27.4 128.7 27.5 255.5c.1 127 102.7 229.6 229.5 229.5 127.3 0 229.8-102.4 229.8-229.6z"/><path class="st1" d="M486.8 255.4c0 127.2-102.5 229.6-229.8 229.7-126.8 0-229.4-102.6-229.5-229.5-.1-126.8 103-229.8 229.7-229.7 126.8 0 229.5 102.8 229.6 229.5zM294 325l-.9-.3c-.8.9-1.6 1.7-2.3 2.6-6.4 7.7-12.8 15.5-19.3 23.1-1.9 2.3-4.1 4.4-6.5 6.2-2.6 1.9-5.5 4.8-9.1 2.5-4-2.6-2.3-6.4-1.2-9.8 12.3-40.5 24.6-80.9 36.8-121.4 5-16.5-4.9-32.1-21.9-34.5-6.4-.9-12.5 1.1-18.2 3.7-19.3 8.6-33.9 22.8-46.5 39.3-4.3 5.7-2.2 12-2 18.3 1.4-.9 2.4-1.9 3.3-3 5.7-6.9 11.3-13.9 17.2-20.6 3-3.4 6.4-6.5 10-9.4 1.9-1.6 4.5-2.7 7-.7 2.4 1.9 2.5 4.4 1.6 7.2-4.3 14.2-8.5 28.4-12.8 42.6-8.2 27-16.4 54-24.4 81.1-1.2 4.1-1.9 8.6-1.4 12.8 1.6 12.3 13.8 22 26.9 21.8 13.9-.1 25.8-5.3 36.4-14.1 10-8.4 17.8-18.7 25-29.4 3.5-5.7 1.8-12 2.3-18zm-5.8-202.8c-15.4-.1-26.7 11.1-26.8 26.2 0 15.2 11.4 26.7 26.5 26.7 15.5 0 26.6-11.1 26.7-26.4.1-15.4-11-26.4-26.4-26.5z"/></g></svg>