<svg id="Layer_1" xmlns="http://www.w3.org/2000/svg" viewBox="0 0 712.9 162.6"><style>.st0{fill:#fff}</style><path class="st0" d="M479.9 144.7h-29.4c-1-3.8-1.3-112.6-.4-120.2H473c18.7 21.8 37.7 43.9 56.7 66.1.3-.1.6-.2 1-.4V24.3H560c1.1 3.6 1.5 111.5.4 120.3-1.5.1-3.1.3-4.7.3-4.3 0-8.7-.2-13 .1-3.7.2-6.2-1-8.6-3.8-15.5-17.9-31.1-35.7-46.7-53.5-2.3-2.6-4.6-5.2-7.5-8.5v65.5zm-250.6.3c-8.7-11.8-17.3-23.2-25.7-34.6h-18.7v34.3h-29.3c-1.1-3.6-1.5-112.2-.4-120.1 1.2-.1 2.4-.4 3.7-.4 17 0 34-.1 51 0 8 .1 15.9 1.6 23.3 4.9 14.9 6.7 23.3 18.1 24.4 34.3 1.1 15.8-4.8 28.6-18 37.8-1.4.9-2.8 1.8-4.6 3 10.1 13.3 20.1 26.5 30 39.6-.2.4-.3.8-.5 1.1-11.6.1-23.1.1-35.2.1zM185 51.3c0 10.4-.2 20.8.2 31.5 9.7-.1 19 1 28.2-.9 3.1-.7 6.3-2.2 8.9-4.2 7.5-5.9 7.2-16.8-.6-22.2-2.9-2-6.6-3.8-10-4-8.7-.6-17.3-.2-26.7-.2zm408 53.4h29.6c.4.5.7.7.8 1 3.2 10.4 10.8 14.7 21 15.5 3 .2 6 .3 9-.1 2.7-.4 5.6-1.3 7.9-2.8 5.5-3.6 5.3-10.6-.2-14.1-2.2-1.4-4.8-2.2-7.4-2.8-7.4-1.8-15-3.2-22.4-5.1-5-1.3-9.9-2.9-14.6-5-15.7-7.2-20.7-20.7-18.4-36.2 2.4-15.8 12.3-25.5 27.1-30.3 16.1-5.2 32.2-4.3 47.8 2.4 12.6 5.5 20.4 15.1 23.4 28.6.2 1 .4 2 .4 3 .1.8 0 1.6 0 2.4-3.6 1.2-21.8 1.6-29.7.6-.5-1.4-1.1-2.9-1.7-4.4-1.9-4.6-5.1-7.8-9.9-9.2-5.6-1.6-11.2-1.6-16.7.1-1.6.5-3.1 1.3-4.4 2.3-4.9 3.5-6.1 13.3 1.5 16.5 3 1.3 6.3 2.2 9.5 3.1 8.2 2.1 16.6 3.7 24.7 6.1 4.6 1.3 9.1 3.4 13.2 5.8 11.1 6.6 15 17 13.9 29.4-1.4 15.8-10.3 26.2-24.7 31.6-17.9 6.7-36 6.4-53.6-1.2-15.6-7-24.1-19.4-26.1-37.2zM143.4 74h-30.2c-.4-1.1-1-2.2-1.4-3.5-7.7-24.6-36.6-24.5-49.9-13.1-14.5 12.5-16 37.2-2.9 51.3 9.4 10.2 25.6 13.2 38.1 7.3 7.2-3.4 11.6-9.2 14.4-16.5.6-1.5 1.1-3.1 1.7-4.8h30.6c-.3 1.9-.5 3.5-.8 5-5.6 28.2-28 46.9-56.8 47.6-16.6.4-31.7-3.7-44.6-14.3-13.7-11.3-20.9-26.1-22-43.8-1.2-19.4 4.4-36.6 18.7-50.3 11-10.6 24.4-16 39.5-17 13.2-.9 25.9 1 37.6 7.8 16.4 9.5 25.2 24.1 28.2 42.6.1.4-.1.9-.2 1.7zm178.8-50.5h28.3c16.9 40 33.8 80.1 51 121-10.9 1-21.1.2-31.8.5-2.8-6.9-5.5-13.6-8.3-20.6h-50.7c-2.7 6.7-5.3 13.5-8 20.3h-31.2c.3-3.6 47.1-115.2 50.7-121.2zM321 97.8h30.1c-5-12.8-9.8-25.1-14.6-37.3h-1c-4.8 12.3-9.6 24.6-14.5 37.3zm89.5-73.5h28.4c.4.3.5.4.6.5.1.1.2.3.3.4.1.6.3 1.3.3 2v115c0 .6-.2 1.3-.4 2.6-9.7.6-19.4.2-28.9.3-1.2-4.4-1.4-115-.3-120.8zM582.9 60h-6.5c1.7-4.6 3.2-8.8 4.8-13.4-1.1-.2-2-.3-2.9-.4-7.9-1.1-11.8-8-8.8-15.4 2.7-6.7 10.5-9.9 17.5-7.2 6.8 2.6 10.2 10 7.3 17.3-1.7 4.3-4.4 8.2-6.7 12.2-1.6 2.4-3.2 4.7-4.7 6.9z"/></svg>