<svg id="Layer_1" xmlns="http://www.w3.org/2000/svg" viewBox="0 0 604.1 448.6"><style>.st0{fill:#fff}</style><path class="st0" d="M342.9 55.4h-43.2c-.1 38.2.1 76 0 113.9-5.9 2.1-11.5.9-16.9 1.1-5.5.2-11 0-17.5 0-.2-3.2-.5-6-.5-8.8V55.1h-41.4c-2-6.4-2.3-22.9-.7-31 5.9-1.3 128-1.8 141.3-.5 9.3 17.4 18.7 35.2 28.9 54.3 10.9-18.2 19.4-36.5 29.5-54.4h38.3c-4.3 7.6-8.2 14.7-12.2 21.7-10.9 18.9-21.9 37.8-32.9 56.7-3.5 6-5.6 12.2-5.3 19.4.5 13.2.2 26.3.1 39.5 0 2.8-.3 5.6-.5 8.4-1.7.5-2.7 1-3.6 1-9.7.1-19.5 0-30.1 0-.2-2.8-.6-5.3-.6-7.8-.1-15 .1-30-.1-45.1 0-3-.4-6.5-1.9-9.1-10-17.4-20.3-34.8-30.7-52.8zM553 29.8c-2 11.3-3.8 21.8-5.6 32.6-7.6-2.7-14.2-5.2-20.9-7.4-2.5-.8-5.1-1.3-7.7-1.4-6.8-.3-8.8 1.3-11.6 9 1.3 2.6 2.5 5.8 4.5 8.5 9.6 12.9 19.4 25.5 29.1 38.3.6.8.9 1.9 1.8 3.6 6.6-9.8 6.9-19.6 8-29.9 12 1.8 22.9 3.7 34 6.9-3 18.1-10 33.7-21 48.1 6.7 8.5 13.4 16.8 20.9 26.2-13.9 3.4-26.8 4.7-39.6 6.6-2.9-3.4-5.4-6.4-8.1-9.6-1.6.8-3 1.5-4.3 2.3-14.6 9.6-30.8 10.6-47.2 7.5-29.5-5.7-38.9-31.1-31.1-55 3.1-9.7 9.9-16.6 17.5-22.9 1.8-1.5 3.6-2.9 4.8-3.8-2.9-7.9-6.4-14.8-8-22.1-2.6-11.4-.9-22.4 6.3-32.2 4.8-6.5 11.3-10.2 18.8-12.4 9.9-2.9 20-4.2 30.4-1.7 6.1 1.5 12.4 2.3 18.4 4 3.5 1 6.9 3.1 10.6 4.8zm-35 108c-7.3-8.2-13.6-17.3-21.2-25.5-7.1 9.9-7.6 20-1.8 25.6 5.5 5.3 15 5.5 23-.1zM492.3 196h91c1.7 6.1 1.9 22.7.3 31.3h-57c-1 8.5-.4 16.3-.5 24.3 6 2.1 11.8.8 17.4 1.1 5.8.2 11.6.1 17.4.1h16.8c2.1 6.3 2.5 19.5 1 29.8-17 1.4-34.3-.2-52.5.9-.4 9-.2 17.8-.1 27.4h56.8c2 6.1 2.4 21.9.9 31-5.6 1.4-80.3 1.9-91.3.6-.2-.2-.4-.4-.5-.6-.2-.2-.4-.4-.4-.6-.2-1.8-.4-3.7-.4-5.5 0-45.6 0-91.2.1-136.8.1-.7.6-1.5 1-3zm-340.9-37.5c-11.3 8-23.2 12.1-35.8 13.4-10.1 1-20.4 1-30.7-1.1-31.3-6.6-53.6-29.2-59.2-60.2-3.8-20.9.6-39.9 11.7-57.3C46 39.9 58.6 30.9 73.7 25.5c23.6-8.3 46.5-6.7 68.9 3.9 1.7.8 3.3 1.7 4.9 2.6.7.4 1.3.9 2.6 1.7-3.4 9.7-6.7 19-10 28.3-8.1-2.6-15.4-5.5-22.9-7.3-11-2.7-22-1.8-32.6 2.3-7.6 3-13.5 8.1-17.3 15.4-8.1 15.5-8.7 31.4-.9 47 7.1 14 19.8 19.8 34.9 20.8 11.3.8 21.9-1.9 32.1-6.7 2.4-1.1 4.7-2.3 7.8-3.8 3.3 9.6 6.6 18.9 10.2 28.8zM25.9 327.6c3-10.2 5.9-20 9.1-30.5 2.7 1.2 4.8 2 6.8 3.1 9.3 5.1 18.9 9.3 29.7 10.1 3.9.3 7.9.2 11.6-.7 8.6-2.1 12.1-11.6 6.8-18.7-2.1-2.9-5.2-5.2-8.4-7-5-2.8-10.4-5.1-15.7-7.4-8.5-3.7-16-8.7-23-15-13.1-11.9-15.1-39.7-.7-54.6 9.9-10.3 21.9-15.1 35.8-16 14.5-.9 28.2 2.1 41.2 8.6 1.6.8 3 1.9 5 3.2-2.8 9.9-5.5 19.7-8.4 30-6.5-3-12-6-17.9-8-5.4-1.8-11.2-2.9-16.9-3.3-5.4-.3-10.4 1.6-13.3 6.9-1.4 10.1.1 13.4 8.9 17.8 6.1 3.1 12.5 5.5 18.7 8.4 9.1 4.3 17.7 9.4 24.1 17.3 12.8 15.8 10.9 46.5-10.7 61.6-12.1 8.4-25.7 10.8-39.9 9.3-13.4-1.4-26.2-5.7-38.2-12-1.3-.6-2.5-1.7-4.6-3.1zM376 342.7c-3.4.2-5.4.4-7.5.4H341c-3.7-8.9-7.3-17.6-11-26.4h-49.3c-3.7 8.5-7.6 17.3-11.4 26h-34.8c23.1-49.9 45.8-99 68.2-147.3 3.5-1.5 5.3-.6 6.4 1.5 1.4 2.5 2.6 5.2 3.8 7.8 20 43.3 40 86.5 60 129.8 1 2.3 1.8 4.7 3.1 8.2zm-70.8-86.9c-4.8 11.9-8.9 22.1-13.3 33h26.6c-4.4-11-8.6-21.3-13.3-33zm90.9 86.8V228.5c-7.5-1.8-14.6-.7-21.6-.9-7.1-.2-14.1 0-21 0-2-7.5-1.9-24.9.2-31.4h118.9c1.7 5.7 2 22.4.3 31.1h-41.5c-.2 3.5-.5 6.3-.5 9.1v106.3c-11.9-.1-22.8-.1-34.8-.1zM139.7 196.1h119.9c1 10.3.2 20.2.4 30.5-7.5 1.7-14.6.7-21.5.9-7.1.2-14.2 0-22.3 0-.4 13.1-.1 25.6-.2 38.2v75.7c-5.7 2-23.8 2.4-33.4.8-.3-.8-1.1-1.7-1.1-2.7.2-19.2.6-38.4.7-57.7.1-13.7.1-27.4 0-41.1 0-4.1-.8-8.3-1.3-13.1h-41.1c-2.3-7.2-2.2-25.7-.1-31.5zM168 23.5h32.6c1.5 6.1 2 133.1.7 145.5-5.2 1.8-20.2 2.2-32.5.8-.3-1.8-1.1-3.7-1.1-5.7l.3-131.3v-9.3zm59.7 399.2c-2.7-5.2-4.9-9.7-7.2-14-2.3-4.4-4.7-8.7-7.8-14.3-5.2 10-9.9 18.9-14.7 28-3.6-4.3-17.6-42-18.9-50.6h13c2.4 7.1 4.7 14.2 7.5 22.6 5.7-7.7 7.8-16 13.2-23.6 6 7.5 8.3 16.3 13.7 24.2 2.4-8 4.7-15.3 7-23H246c-.5 7.1-13.6 44.4-18.3 50.7zm143.1-26.5c.1-14.6 11.1-26.7 24.9-26 14.1.7 25.4 8.3 25.9 25.8.4 15.4-11.2 26.2-26.4 26.2-16.7-.1-25.3-14.1-24.4-26zm19.7-13c-7.5 6.8-9 14.9-4.1 22.2 4.2 6.2 11.2 7.2 17 2.4 5.4-4.5 6.7-11.8 3.4-18.6-3.4-6.9-6.7-8.1-16.3-6zM66.6 422c-9.4-8.2-18.8-16.4-29-25.3v23.6H25.7c-.1-16.7-.1-32.8 0-49.9 6.8 2.9 10.7 8 15.3 12 4.5 3.9 8.9 8.1 14.7 13.4v-23.9h12.4c1 16.4.4 32.8.3 49.2l-1.8.9zm397-50.7c6.6 0 12.9-.4 19.2.1 8.3.7 13.3 5.2 15.5 12.4 1.6 5.1-.5 9.3-2.7 13.4-1 1.8-2.6 3.3-4.2 5.2 3.1 5.5 6.3 11.1 9.7 17-4.5 1.9-8.4 1.1-12 1-5.9-3.9-5-12.9-13.3-16.1-.7 5.5-1.4 10.3-2.1 15.7h-10c-1.6-5.6-1.8-39.8-.1-48.7zm10.8 22.6c8.1 1.4 9.8.2 11.5-7.2-2.4-4.7-6.2-4.8-10.9-3.4-.3 3.6-.4 6.9-.6 10.6zm93.8-22.3h12.4c-1 5.7-5.8 8.2-8.6 11.8-3 3.9-6.2 7.7-9.6 11.8 6.7 8.2 13.1 16.1 19.6 24-5.3 2-5.4 2-13.9 1-5.1-6.3-10.3-12.7-16.7-20.6v20.7H540c-1.7-5.7-2-39.5-.3-48.3H551v18.5c7.7-5.9 11-13.6 17.2-18.9zM123 382.4v7.4c5.3.3 10.4.5 15.7.8 2.3 3.2 1.5 6.4.8 10.5-5.2.3-10.3.5-16.2.8-.1 2.3-.2 4.5-.3 7.6h19.4c-.3 4-.5 7-.7 9.9-6 1.8-22.9 2-31.5.3-.3-15.6-.2-31.5-.1-47.9h31.2v10.6H123zm193.2 6.3c3.4-5.9 6.5-11.3 9.7-16.9h13.5c-3.5 6.2-6.2 11.9-9.6 17-5.4 8.1-9.1 16.5-7.7 26.5.2 1.5-.3 3-.5 5h-10.7c-.3-6.3-.6-12.3-1-18.9-5.3-9.1-10.9-18.7-17.1-29.5h14.1c2.7 5.1 5.8 10.6 9.3 16.8z"/></svg>