<svg id="Layer_1" xmlns="http://www.w3.org/2000/svg" viewBox="0 0 646 353.5"><style>.st0,.st1{fill:#fff;stroke:#fff;stroke-miterlimit:10}.st1{stroke-width:2;stroke-linecap:round;stroke-linejoin:round}</style><path class="st0" d="M236.9 169.1v152c0 6.6 0 6.6-6.6 6.6h-204c-4-.2-4.3-.4-4.4-4.3v-305c0-8.4-.5-7.8 7.9-7.8h200c7.2 0 7.2 0 7.2 7-.1 50.5-.1 101-.1 151.5zM41 161.8c0 4.5.1 9 0 13.5-.2 10.5.4 20.9 2.1 31.3 1.1 6.9 2.6 13.7 6.3 19.9 4 6.7 9.3 12 17 13.7 11.8 2.6 22.8 1.1 31.7-8.1.7-.8 1.9-1.2 2.8-1.7.3 1.2 1 2.4 1 3.6.1 8 .5 16-.1 24-.4 5-1.6 10.3-3.8 14.8-3.1 6.3-10 9.1-19.5 6.8-5.5-1.3-9.7-5.4-10.5-14.1-.4-4.2-.7-4.6-4.7-4.7-3.8-.1-7.7-.1-11.5 0-3.5.1-4.5.9-4.7 4.4-.2 3.7-.5 7.4 0 11 1.3 8.8 5.2 16.2 13.8 20 10 4.4 20.5 5 31.2 3.7 16.6-2 26.8-11.5 32.1-26.8 3.1-8.8 4.5-18.1 4.6-27.4.2-30.1.1-60.3.1-90.4v-3c.1-2.2-.9-3.2-3.2-3.4-6.7-.6-6.7-.7-6.7-7.5v-4.5c0-6.8-.1-13.7 0-20.5.1-3.7.7-4.3 4.4-4.6.7 0 1.3-.1 2 0 2.5.1 3.6-1.1 3.6-3.6-.1-5.2-.1-10.3 0-15.5.1-2.7-1-4-3.8-3.9-4.7.1-9.3 0-14 0-3.6.1-4.2.7-4.9 4.2-.4 2.3-.7 4.6-1.2 6.9-.3 1.2-1.1 2.2-1.7 3.3-.8-.8-1.6-1.5-2.3-2.3-2.4-2.7-4.4-6-7.3-8.1-9.7-7.1-20.4-7.3-31.3-3.2-8.8 3.3-13.4 10.7-16.5 19-3.8 10.4-4.7 21.4-4.9 32.4-.3 6.8-.1 13.8-.1 20.8zm112.9 40v52.5c0 7.9 1.6 15.6 4.5 22.9 1.7 4.4 4.3 8.1 8.3 11 9.1 6.5 19.1 6.8 29.6 4.8 5.6-1 10.4-3.5 14.3-7.6 1.1-1.2 2.1-3.1 2.3-4.7.3-3.3.1-6.7.1-10 0-2.3-.9-3-3.1-2-4.4 1.9-9 2.3-13.7 1.9-4.7-.3-8.5-2.4-10-7-1.1-3.3-2-6.8-2-10.2-.1-35.5-.1-71-.1-106.5 0-5.9.4-6.3 6.2-6.3h17.5c3.9-.1 4.2-.4 4.3-4.4.1-3.7.1-7.3 0-11-.1-4.3-.3-4.6-4.6-4.6-6-.1-12 0-18 0-4.8-.1-5.3-.6-5.4-5.6v-4c0-20 0-40-.1-60 0-1.3-.5-3.6-1.3-3.8-1.3-.4-3.2.1-4.5.9-5.6 3.6-11 7.6-16.6 11.1-3.4 2.1-4.7 4.5-4.6 8.5.2 15.5.1 31 .1 46.5 0 6.2-.3 6.4-6.6 6.4-6.5 0-13 .1-19.5 0-2.7 0-4 1-3.9 3.8.1 4.2 0 8.3 0 12.5.1 4.3.3 4.6 4.5 4.6 4.8.1 9.7 0 14.5 0 8.4 0 8-.7 8 7.7-.2 17.6-.2 35.1-.2 52.6zm321 39.8v-23c0-1.7-.7-4.1 1.7-4.7 2.3-.6 5.3-1.3 6.8 1.4 1.3 2.1 2.1 1.8 3.8.6 6.5-4.5 10.2-4.2 15.9 1.1 1.5 1.4 2.3.5 3.3-.4 3.5-3 7.3-4.4 11.9-3.1 4.8 1.4 7 5 7.5 9.6.6 5.3.8 10.6 1 15.9.1 3.5 0 7 0 10.5 0 2.9-1 5.3-3.5 6.8-2.9 1.6-3.6 4.1-3.4 7.1.1 1.5.2 3-.1 4.5-.2.9-1.2 1.7-1.9 2.5-.9-.7-2.3-1.3-2.7-2.3-.5-1.1-.3-2.6-.3-3.9v-37.5c0-2.2-.7-4-2.9-4.7-1.9-.6-4.6 1.2-5.3 3.6-.5 1.7-.6 3.6-.6 5.4-.1 11.5 0 23-.1 34.5 0 1.7.7 4.3-1.6 4.7-2.7.5-5.6.2-8.3-.2-.5-.1-1-2.3-1.1-3.5-.1-5.2-.1-10.3-.1-15.5v-24.5c0-2.3-1.2-3.8-3.4-4.3-2-.4-4.8 1.4-5.3 3.7-.3 1.4-.3 3-.3 4.5 0 11.5.1 23-.1 34.5 0 1.8-.5 5-1.4 5.2-2.6.7-5.6.5-8.3 0-.6-.1-1.2-2.5-1.2-3.9-.1-7.3-.1-14.7-.1-22 .1-1 .1-1.8.1-2.6zm-158 3c0 8 .3 16-.1 24-.2 3.7-1 7.6-2.5 11-3.3 7.4-11.9 10.8-19.7 8.3-5.4-1.7-8.4-6.4-7.6-11.9.3-1.9 1-3.2 3-3.3 1.9-.1 4.1-.6 5.4 1.5.3.4.3.9.5 1.4 1.4 3.3 2.9 4.4 5.4 3.9 2.4-.5 3.4-2.1 3.6-5.7v-.5c-.2-2.1-.3-4.3-.5-6.4-1.9.4-3.7.9-5.6 1.3-3.8.9-9.1-1-10.8-4.5-1.5-3.2-2.9-6.9-3-10.4-.4-8.5-.2-17-.1-25.5 0-2 .4-4 1.1-5.8 2.8-8 11-10.9 18.1-6.4 1.5.9 2 1.5 3.4-.4 1.8-2.6 4.9-1.8 7.4-1.1s2 3.2 2 5.1c.1 4.3 0 8.7 0 13v12.4zm-12-4v-12.9c-.1-3.9-1.4-5.8-3.8-5.9-2.6-.1-4 1.9-4.1 6.1v23.9c0 1 0 2 .1 3 .4 2.2 1.6 3.7 4 3.7 2.3-.1 3.5-1.7 3.8-3.9.1-1 .1-2 .1-3-.1-3.7-.1-7.4-.1-11zm291 64c0 7.2.1 14.3 0 21.5 0 2.5-.4 5-1 7.4-2.2 8.7-10.7 13.5-19.4 10.7-4.1-1.3-6.5-4.4-7.2-8.8-.3-2-.1-3.9 2-4.5 2-.6 4.5-1 5.8 1.4 1.2 2.4 2.4 4.7 5.5 4 3.5-.8 3.6-4 4.2-6.7.2-.8.1-1.7.1-2.5.1-2.1-.2-3.1-2.8-2.2-8.9 2.9-15.5-1.5-16-11-.5-9-.3-18 0-27 .2-5.7 4-9.6 9.2-11 2.9-.8 5.2.3 7.6 1.6 1.3.7 2 1.4 3.8 0 1.5-1.1 4.4-1 6.6-.6 2.1.3 1.7 2.6 1.7 4.2-.1 7.8-.1 15.7-.1 23.5zm-11-3.9v-7.5c0-2 .3-4.1-.2-5.9-.4-1.3-1.8-2.9-3-3.3-.8-.3-2.7 1.1-3.3 2.2-.9 1.5-1.3 3.4-1.3 5.2-.1 6.1-.1 12.3 0 18.4 0 1.8.4 3.7 1.1 5.3.4 1 1.8 2.1 2.8 2.2 1.1 0 2.5-.9 3.2-1.8.7-1 .8-2.5.8-3.8 0-3.7-.1-7.3-.1-11zm-24-58.6v-23c0-1.9-.4-4.1 2-5.2 2.1-.9 5.6-.3 7.1 1.7 1.2 1.6 2 1.2 3.3.4 1.3-.8 2.6-1.5 4-2 6.8-2.8 13.1.4 14.9 7.7.4 1.8.7 3.6.7 5.4.1 12.5.1 25 0 37.5 0 1.9.7 4.7-1.6 5.3-2.8.7-5.9.5-8.7-.1-.8-.2-1.5-3.1-1.6-4.7-.1-10.2-.1-20.3-.1-30.5v-8c0-2.4-.8-4.4-3.4-4.7-2.4-.3-4.6 1.9-4.4 4.8.4 6.5-1.3 12.7-.4 19.3.9 7.1-.3 14.6-.8 21.9-.1.9-1.2 2.3-1.9 2.4-2.1.3-4.3.3-6.4 0-2.7-.4-2.5-2.8-2.5-4.8V244c-.2-.6-.2-1.3-.2-1.9zm-121-.1v-23.5c0-1.7-.6-4.2 1.8-4.6 2.4-.4 5.5-1.6 7.2 1.5 1.1 2.1 2.3 1.3 3.6.4 3-2 6-3.4 9.8-2.7 4.4.8 7.2 3.5 8.4 7.6.7 2.5 1.2 5.2 1.2 7.9.1 12 .1 24 0 36 0 1.9.7 4.7-1.6 5.3-2.8.7-5.9.5-8.7-.1-.8-.2-1.5-3.1-1.6-4.7-.1-10.7-.1-21.3-.1-32v-6.5c0-2.4-.8-4.3-3.5-4.7-1.9-.3-4.8 1.9-5.2 4-.3 1.4-.2 3-.2 4.5v34.5c0 1.9.9 4.7-1.5 5.3-2.6.7-5.6.3-8.3-.1-.6-.1-1.1-2.6-1.1-3.9-.2-8.2-.2-16.2-.2-24.2z"/><path class="st0" d="M422.9 293.3c0-10 .1-20-.1-30 0-3 .9-5.2 3.6-6.4 1.6-.7 3.3-1.2 5-1.7.2 1.6.4 3.1.5 4.7.2 6 .3 11.9.5 17.9 0 .2.9.7 1.1.6 1.7-.6 3.3-1.6 5-2.1 5.2-1.6 9.8.6 11.8 5.6.8 2.1 1.4 4.5 1.4 6.8.1 11.5.1 23 .1 34.4 0 4.9-5.1 7.8-9.3 4.9-1.1-.8-1.6-3.1-1.7-4.8-.1-10.2-.1-20.3-.1-30.5v-4.5c-.1-2-.8-3.8-2.8-4.2-2.4-.5-3.8 1.3-4.5 3.1-.6 1.5-.5 3.2-.6 4.9v31.5c0 4.4-1 5.2-5.3 5.1-3.8-.1-4.6-.8-4.6-4.8v-30.5zm-73-51.9c0 2-.1 4 0 6 .4 4.2-.6 7.5-4.6 9.6-2.5 1.3-2.7 3.8-2.4 6.1.8 5-2 7.2-7.5 7.5-8.6.5-13.1-2.4-15.5-10.8-1.1-3.8-1.9-7.8-1.9-11.7 0-7.3.2-14.6 1.1-21.8.8-6.6 4.3-11.3 11.3-13 6.7-1.7 13.7 1.3 16.6 7.6 2.9 6.5 3.2 13.4 2.9 20.5zm-12 .1c0-4.8.1-9.6-.1-14.5-.1-3.1-1.9-5.3-3.8-5-2.4.4-3.8 2.2-4 4.5-.4 7.8-.8 15.6-.9 23.3-.1 2.5.6 4.9.9 7.4.3 2.5 1.6 4 4.1 4.2 2.8.2 3.1-2.1 3.6-4 .3-1.3.2-2.6.3-4-.1-3.9-.1-7.9-.1-11.9zm73.3-8.6c-.3 2.8-.7 5.6-1 8.4-.3 2.4-1.7 3.4-4.1 3.3-3.8-.1-7.7 0-11.5 0-2.5 0-3.9.9-3.6 3.5.3 3.3.6 6.6 1.1 9.9.4 2.2 1.9 3.4 4.2 3.5 2.6.1 3.5-1.5 4-3.6.1-.3.2-.6.3-1 .5-1.3.8-3.5 1.7-3.8 2-.6 4.3-.6 6.4-.2.9.2 2 1.8 2 2.9.4 8.9-5.4 14.4-14.4 14.9-8.3.5-13.1-4.1-14.8-11.2-2.5-10.6-2.3-21.4-.5-32.2.3-1.6.9-3.2 1.5-4.8 3.7-9 15.2-12.3 23-6.6 3.7 2.7 4.8 7 5.4 11.4.2 1.8 0 3.7 0 5.5.1.1.2.1.3.1zm-11.3-2.6h.2c-.2-1.8-.2-3.6-.7-5.4-.5-1.8-1.6-3.4-3.8-3.2-2.1.2-3.2 1.6-3.6 3.5-.3 1.8-.6 3.6-.9 5.3-.8 5 .4 6.3 5.4 5.9 2.2-.2 3.4-1 3.3-3.3.1-.8.1-1.8.1-2.8zm144.4-16.7c8.7 0 12.6 3.4 14.7 11.8 1.3 5.2.3 10.2-.3 15.3-.3 2.6-1.7 4.1-4.7 4-3.5-.2-7 0-10.5 0-2.6 0-3.6 1.2-3.5 3.6.1 2.3-.2 4.7.1 7 .2 1.6.8 3.3 1.8 4.5.8.9 2.7 1.7 3.8 1.5 1.2-.3 2.2-1.8 3-2.9.4-.6.3-1.6.3-2.4 0-2.3 1.2-3.3 3.4-3.2h2c4.2.1 4.9 1 4.5 5.1-1.2 10.8-11.7 16.4-21.4 11.7-2.3-1.1-3.7-2.6-3.6-5.4.1-2 0-4 0-6 .1-2.8.1-5.2-3.5-6.1-1.1-.3-2.2-2.5-2.3-3.9-.5-7.8-.1-15.6 1.8-23.2 2-7.8 7.4-12.1 14.4-11.4zm4.6 16.6h.2c-.2-1.6.1-3.5-.7-4.8-.8-1.4-2.4-3-3.9-3.3-2-.5-3.2 1.5-3.5 3.4-.5 2.7-.9 5.5-.9 8.3 0 .9.9 2.2 1.7 2.6 4.2 1.8 7.1-.2 7.2-4.6-.1-.6-.1-1.1-.1-1.6zm-92 72v-21.5c0-1.6-.3-3.7 2-3.9 2-.2 4.6-1.2 5.7 1.4 1 2.3 1.7 1.1 2.9.3 3.3-2.1 6.7-3.6 10.8-2.4 3.1 1 5.3 2.9 6.2 6 .7 2.5 1.3 5.2 1.3 7.8.1 11 .1 22 0 32.9 0 5.1-4.8 7.8-9.2 5.1-1.1-.7-1.7-3.1-1.7-4.7-.2-8.8-.1-17.6-.1-26.5v-8.5c0-2.2-.9-4.5-3.2-4.3-1.6.1-3.3 1.9-4.3 3.4-.7 1.1-.4 2.9-.5 4.4v31c0 5.1-3.4 7.5-8.1 5.4-1-.4-1.7-2.3-1.8-3.6-.2-6.7-.1-13.3-.1-20 .1-.6.1-1.5.1-2.3zm149.5 42.4c-5.4 0-6.6-.9-6.5-4.3.1-1.9.8-3 2.7-3.6 6.5-2 8.2-5 6.6-11.5-2.7-11.2-5.4-22.3-8.1-33.5-.9-3.9-1.6-7.8-2.6-11.7-.7-2.5.3-3.4 2.7-3.4h3.5c2.6-.1 4 1.1 4.4 3.7 1.5 8.7 3.2 17.3 4.8 25.9.1.6.2 1.3.4 1.9.3-.7.6-1.3.7-2.1l3.9-24.6c.7-4.3 6.2-6.9 9.7-4.4.6.4.8 2.1.6 3-1 5.7-2.2 11.4-3.3 17.1-2.3 11.4-4.6 22.8-7 34.2-.5 2.4-1.4 4.8-2.5 7-1.9 4.5-5.4 6.7-10 6.3zm-72.1-43.2c.8-5.3 1.1-10.2 2.2-14.8 2.2-8.8 9.2-12.5 17.9-10.1 3.9 1.1 6.4 3.6 7.6 7.2 2.6 8.1 3.6 16.5 2.3 25-.6 3.6-.9 7.3-2 10.7-3.2 10.5-14.4 11.4-21 6.7-2.1-1.5-3.7-4.4-4.3-7-1.2-6-1.8-12.1-2.7-17.7zm19.6 1c0-3.8.2-7.7-.1-11.5-.1-1.9-.8-3.9-1.8-5.5-1.3-2-3.2-2-4.3.2-1 2-1.6 4.4-1.7 6.6-.2 6.5-.2 13 0 19.4.1 2.1.6 4.3 1.4 6.2.4 1 1.9 2.2 2.9 2.2.9 0 2.2-1.4 2.6-2.4.6-1.7.9-3.5 1-5.3.1-3.2 0-6.6 0-9.9zm-65.4-.7c.5-5.1.6-10.3 1.6-15.3 2-10.3 12.7-13.2 20.2-9 2.2 1.2 4.3 3.5 5.1 5.7 1.4 3.7 2.3 7.7 2.4 11.6.1 7.1-.1 14.3-1.1 21.3-.4 3.3-2.2 6.8-4.4 9.3-4.7 5.4-17.7 5.1-21.1-4.4-.7-2-1.8-4.1-1.9-6.2-.3-4.3-.1-8.6-.1-13-.2.1-.5 0-.7 0zm18.4.6c0-4 .1-8 0-12-.1-1.6-.4-3.3-1.1-4.8-1.1-2.2-3.3-2.3-4.8-.3-.6.8-1 1.8-1.1 2.7-.4 3.6-1 7.3-.9 10.9.1 6 .6 11.9 1 17.9.2 2 1.4 3.8 3.5 3.4 1.2-.2 2.3-2.1 3-3.4.5-.9.4-2.3.4-3.4v-11zm-129.6 26.3c-6.6 0-11.5-3.5-13.1-9.9-.8-3.2-1.1-6.5-1.3-9.8-.2-4.5 0-9-.1-13.5-.1-4.8 1-9.2 3.3-13.4 2.7-5.1 7.5-7.2 14.4-6.3 5.1.6 8.1 3.4 9.7 8.7 1.7 5.6.8 11.2.4 16.7-.2 2.3-1.6 3.5-4 3.5-3.2 0-6.3.1-9.5 0-2.3 0-3.3 1.1-3.3 3.4.1 2.7 0 5.3.2 8 .2 2 1.1 3.4 3.4 3.6 2.4.2 3.8-1 4.2-3.3.3-1.8.2-3.7 2.5-4.5 4.6-1.5 6.9.4 6.7 5.2-.1 5.4-6 12.8-13.5 11.6zm-3.4-37.6v2.3c-.1 1.7-.9 3.8 2 4.1 2.9.3 4.9-1.1 5-4 .1-2.1.3-4.4-.2-6.4-.4-1.3-2-3-3.1-3.1-1.1 0-2.6 1.7-3.3 2.9-.7 1.4-.4 3.1-.4 4.2zm-20.3-77.4c5.1 0 5.5.5 6.3 5.5 1.6 9.2 3.3 18.3 5 27.4.1.5.4 1 .7 1.5.1-.5.3-.9.3-1.4 1.7-9.6 3.3-19.3 5-28.9.7-3.8 1-4 4.9-4.2 1 0 2-.1 3 0 2.8.3 3.5 1.1 3 3.9-.5 2.6-1.2 5.2-1.8 7.8-3 13.5-6 26.9-9 40.4-1 4.6-5.1 6.6-9.3 4.6-1.1-.5-2-2.2-2.3-3.5-2.2-9.4-4.2-18.8-6.3-28.2-1.4-6.3-2.8-12.6-4.1-19-1.3-5.9-1.2-6 4.6-5.9z"/><path class="st0" d="M343.9 301.8v-14c0-1.9-.2-3.3-2.2-4.5-2.9-1.8-2.4-5.5.8-6.7 2-.8 2.4-2 2.4-3.8v-9c.1-3.5 4.5-8.6 7.9-8.9.6-.1 1.6.6 1.8 1.2.3 1.1.3 2.3.3 3.4 0 4.3.1 8.6 0 13-.1 2.7.9 4.1 3.7 4 2.4-.1 4.3.3 4.3 3.4 0 3.2-.7 4.3-4.4 4.5-2.9.2-3.7 1.5-3.7 4.1.1 8.8 0 17.6.1 26.4 0 4.2 1.1 5.3 5.3 5.2 2.2-.1 2.9.9 2.5 2.5-.4 1.6-1.2 3.6-2.5 4.5-4.9 3.6-13.3.7-15.2-5.1-.7-2.3-1-4.9-1.1-7.3-.1-4.3 0-8.6 0-12.9zm60 .2v11.5c0 1.3.1 2.8.6 3.9.4.9 1.7 1.8 2.5 1.8.9 0 1.9-1 2.5-1.9.5-.8.6-1.9.8-2.9.5-2.1 1.8-2.9 4-3 4.9-.2 5.9.8 5.4 5.7-.6 5.8-4.5 10.3-9.7 11.2-6.8 1.1-12.4-1.6-14.9-7.3-1.6-3.7-2.6-7.4-2.4-11.6.3-6-.1-12 .1-18 .2-4.7 1.6-9 5-12.7 3.1-3.4 11.4-4.5 16.4-1.9 3.6 1.9 6.2 8.1 5.6 13.1-.3 2.2-1.3 3.4-3.5 3.4s-4.9.9-5.6-2.5c-.3-1.5-.4-3-1-4.4-.5-1.1-1.5-2.6-2.3-2.6-1 0-2.4 1.1-2.9 2.1-.6 1.1-.5 2.6-.6 3.9V302zm205.5-30.9c-8.1-.9-11.2-5.8-11.2-13.7.1-9.5.4-18.9.6-28.4 0-1.6-.5-2.6-2.1-3.5-3.9-2.1-4-5.9-.2-7.8 1.9-.9 2.4-2.1 2.4-3.9v-8.5c.1-3.6 4.3-8.2 7.8-8.5 1.9-.2 2.2 1.2 2.2 2.6.1 4.2 0 8.3 0 12.5 0 4.7 0 4.7 4.6 5.6 2.7.5 3.4 1.6 3.4 4.6 0 2.7-1.4 3.3-3.8 3.4-4.1.3-4.2.4-4.2 4.4-.1 8.8-.1 17.7 0 26.5 0 4.2.3 4.3 4.4 5.1 1.2.2 3.1 1 3.2 1.6.1 1.7 0 4-1.1 5-1.5 1.5-3.9 2.1-6 3zm-185.5-31v11.5c0 2.4-.7 4.4-1.7 6.6-1.2 2.5-1 5.7-1.3 8.6-.3 3.2-.8 3.8-3.9 3.8-3.4 0-4.1-.5-4.1-4-.1-16.3-.1-32.6 0-48.9 0-3.9 3.8-5.9 7.3-3.3 2.3 1.8 3.4.9 5.2 0 6.1-3.1 10.9-.7 12.8 6 .9 3.2.6 6.2-.2 9.3-.7 2.8-2.7 2.9-5 2.9-2.5 0-2.9-1.5-3.1-3.6-.1-1.6-.5-3.3-1.1-4.8-.3-.8-1.2-1.9-1.8-1.9-.8 0-1.9.8-2.2 1.5-.5 1.2-.5 2.5-.7 3.8v.5c-.2 4-.2 8-.2 12zm108 51.5v31.9c0 1.7.7 4.2-1.6 4.7-2.2.5-4.6.1-6.8-.3-.6-.1-1.2-1.5-1.4-2.4-.3-.9-.1-2-.1-3v-57.8c0-5 2.3-8 7-9.6 1.9-.6 2.9.1 3 2 .1 1.2.1 2.3.1 3.5-.2 10.4-.2 20.7-.2 31zm-431-127.5c0 13.5-.3 27 .1 40.5.2 6.5-9.3 16.5-15.8 16.1-5.9-.3-10.7-3-12.9-8.5-1-2.6-1.9-5.4-2.2-8.2-.6-5.4-1.1-10.9-1.1-16.4-.1-15.2-.2-30.3 0-45.5.1-6.1.4-12.3 1.1-18.4.4-3.2 1.6-6.5 3-9.4 3.7-7.5 14.1-9.2 20.4-3.7 5 4.4 7.8 9.4 7.5 16.5-.4 12.3-.1 24.6-.1 37z"/><path class="st1" d="M415.4 289.1c-.3-1.2-.7-2.3-1-3.5-1.1-4.6-2.7-6-7-6-3.8 0-7.3 2.4-7.9 6-.6 3.1-.9 6.3-1 9.5-.2 5.2-.1 10.3 0 15.5.1 2.5.4 5.1 1 7.5 1.3 5.3 4.4 6.1 8 6 3.8-.1 5.7-1.7 7-6 .2-.7.6-1.3 1-2m119.9-75.5h11.5c1.5 0 3.1-.1 4.5-.5.9-.3 2.4-1.3 2.4-1.9 0-4.8.2-9.7-.5-14.5-.5-3.2-4.9-5.9-8.4-6-4.1-.1-7.3 2.1-9 6-2.1 4.7-1.5 9.7-1.8 14.5-.1 1.8.1 3.6-.1 5.5-.2 1.4.2 3.2 1 4.4 1.6 2.4 2 4.8 2 7.6 0 1.7.1 3.4.5 5 1.3 4.7 3.1 5.8 8.5 5.5 3.7-.2 6.7-2.8 7.5-6.5.2-1 1-1.8 1.5-2.8m-168.1-16.3c3.8 0 7.7.1 11.5-.1 1.8-.1 3.7-.6 5.5-1.3.7-.3 1.5-1.4 1.5-2.2 0-4 .1-8.1-.5-12-.8-5.2-3.8-7.5-8.9-7.5-4.8 0-8 2.6-9 7.5-1 5-2.4 9.8-.7 15.1.8 2.6-.8 5.9-.7 8.9.1 3.2.7 6.4 1.5 9.5 1.5 5.6 3.9 7.5 8.9 7.5 5.3 0 8.3-1.9 9.3-7 .5-2.3 1.9-2.7 3.2-3.7m121.9.8c-2.9 3.5-3.6 7.5-3.6 12 .2 18.5.1 37 .1 55.5M310.4 222.1c-2.6-.7-4.8-1.7-7.1-3.4-4.2-3.1-10.7.1-11.9 5.4-.3 1.5-.5 3-.5 4.5 0 8-.1 16 0 24 0 1.8-.2 4 .6 5.4 1.9 3.4 4.5 6.2 9.9 4.6 2.6-.8 5.3-1 8-1.5m280.5 23c-1.7-.7-3.7-1-4.9-2.1-2.2-1.9-4.7-2.6-7-1.8-3.6 1.1-5.8 4.2-6 7.9-.3 8.3-.3 16.7 0 25 .2 3.8 2 7.2 5.9 9M137.4 111.6c-2.8 3-6.2 5-10.5 4.5-3.2-.4-3.8 2.1-3.9 4-.3 7.3-.2 14.7 0 22 .1 2.7 2.3 3.1 4.4 3 3.3-.1 5.9 1.1 8 3.5m365.5 74.5c2.3-1.2 4.9-2 6.9-3.6 2.8-2.2 5.5-2.4 8.6-.9 3.1 1.4 4 3.8 4 7 .1 5.8.2 11.7.5 17.5.2 4.4-.3 8.5-2.4 12.5s-1 8.6-.8 13m-164.3-12.5c-3.1 4.2-3.6 8.9-3.6 14 .1 14.3-.2 28.7-.4 43 0 1.2-.1 2.3 0 3.5.6 6.6 4.6 9 11 6.8M99.4 87.1c1.2 4.5 2.4 9 3.5 13.5.2.8 0 1.7 0 2.5m343.5 118.5c2.7.3 4.8-1.2 7-2.5 6-3.5 10.9-1 12 6 .2 1.7.5 3.3.5 5v34.5m101.5-42.5c2.2-.8 4.6-1.3 6.4-2.6 5.5-3.9 13.3-1.6 13.1 7.6-.2 12.5-.1 25-.1 37.5m-169.6-47c.9 1.7 1.4 3.4 1.3 5.5-.2 5.7.1 11.3-.1 17-.3 8.8-1 17.7-1.5 26.5m-37.5-50.3c-2.9 1-4 3.5-4.5 6.3-1.7 8.7-3.5 17.3-4.9 26-.6 3.5-2 6.2-5.1 8m97.5 28c1.8-.8 3.9-1.4 5.5-2.6 5.5-4.1 11.1-1.9 12 5.1.4 3 .5 6 .5 9 .1 9 0 18 0 27m-51.5-39.5c1.7-.5 3.5-.7 5-1.6 7-4.2 12.4-1.6 12.5 6.6.2 11.5 0 23 0 34.5m-2-105c2.1 2.6 1 5.6 1 8.5v38.5m34-47c1.1 2.6 1 5.3 1 8v39m85-47c2.8 4.9 1.2 10.3 1.5 15.5.2 4 .1 8 0 12-.1 6.5-.3 13-.5 19.5m-196.5 36c4.3-.3 8.7-.6 13-1 2.2-.2 3.2-1.6 3-4-.2-2.8.1-5.7-.1-8.5-.3-4.5-3.3-7.5-7.5-8-4.1-.5-8.3 2.3-8.9 6.6-.6 4.8-3 9.5-.7 14.5.4.9-.4 2.3-.4 3.5.1 4.3.1 8.7.5 13 .3 3.6 3.1 6.8 5.9 6.9 6.3.3 8.4.5 10.5-4.5.5-1.1.7-2.3 1-3.5m94.7-94c2.9 0 5.3-1.3 7.5-3 2.7-2.2 5.4-1.6 8-.4 2.8 1.3 4.1 3.5 4.1 6.9-.2 13.2-.1 26.3-.1 39.5"/><path class="st1" d="M430.4 256.6c-2.6 2.9-3.2 6.2-3 10 .8 19 .5 38 .5 57m163.5-42.5c-.3 1.8-.9 3.7-1 5.5-.1 8.8-.2 17.7 0 26.5.1 3.2-1.1 6.2.2 9.6 1 2.6.1 5.9-.3 8.9-1.1 7.3-7.7 11.1-13.9 8-1.3-.7-3.4-2-3.3-2.9 0-3.2-2-2.4-3.7-2.5m-108.5-53.6c.3 2.5.9 5 1 7.5.1 11.8 0 23.7 0 35.5m-150-105c-.3 2-.9 4-1 6-.1 9.7.5 19.4-.2 29-.5 6.9.9 13.7-.2 20.5-1.1 6.6-5 10.3-11.6 10-4-.2-6.4-2.5-7.5-7m62.8-58.5c2.1 10.3 4.2 20.7 6.3 31 .2 1 .4 2.3 1 3 3.6 3.6 3.9 7.9 3.5 12.5m237.9 15.7c.7 1.1 1.7 2.1 1.9 3.3 1.5 6.6 2.7 13.3 4.1 20 .7 3 1.4 6.1 2.6 9 .5 1.4 1.9 2.4 2.9 3.5m-7-118.5c-2.9 3.5-3.6 7.5-3.6 12 .2 15.8.1 31.7 0 47.5 0 7.1 2.7 9.3 9.5 7.8"/><path class="st1" d="M623.9 281.6c-1.7 9.3-3.3 18.7-5 28-.2 1.2-.8 2.5-1.5 3.5-2.1 2.7-3.2 5.3-2.6 9.1.7 4.5.2 9.2-2.2 13.5-2 3.5-4.6 5.3-8.6 5M100.9 230.1c-2.3 5-4.7 10-7 15m325-24c2.3-.2 4.1-1 6.1-2.4 3.5-2.5 7.4-.8 8.4 3.4.5 2.1.4 4.3.6 6.5m-100.6-11.5c-8.6 2.1-9.5 9.2-9.9 16-.4 8.3-.5 16.7 1.3 25 1.4 6.8 6.4 8.8 12.1 7.9 2-.3 2.5-2.3 3-4 1-3.3 2-6.7 3-10 .3-.9 1-1.7.9-2.5-.1-7.7 0-15.4-.6-23-.4-5.4-3.6-8.9-9.4-9.5m215.6 62.6c-6 1.5-8.4 5.7-8.5 11.5-.1 7.5-.3 15 .1 22.5.2 3.5.9 7.2 4.4 9.5 5.1 3.4 10.4 1.1 12-3.5.4-1.1.9-2.3 1-3.5.3-6.3.4-12.7.5-19 0-2 .1-4 0-6-.4-7-2.3-9.4-9-11.5m-47.5 0c-7 1.4-8.1 6.9-8.4 12.5-.4 6.6-.3 13.3 0 20 .2 3 1.1 6.3 2.5 8.9 1.8 3.3 5.3 4.1 8.9 3.5 2.8-.4 6.3-4.8 6.4-8.5.2-9.3.4-18.7 0-28-.2-5.6-2.8-7.5-8.9-8.5"/></svg>