<svg xmlns="http://www.w3.org/2000/svg" viewBox="0 0 512 512"><path d="M256 0C114.844 0 0 114.844 0 256s114.844 256 256 256 256-114.844 256-256S397.156 0 256 0zm-85.333 341.333c-47.052 0-85.333-38.281-85.333-85.333s38.281-85.333 85.333-85.333a85.365 85.365 0 0 1 55.458 20.479c4.469 3.833 5 10.563 1.167 15.042-3.813 4.49-10.552 5-15.042 1.167A64.037 64.037 0 0 0 170.667 192c-35.292 0-64 28.708-64 64s28.708 64 64 64c31.656 0 58.021-23.104 63.115-53.333h-63.115c-5.896 0-10.667-4.771-10.667-10.667s4.771-10.667 10.667-10.667h74.667A10.66 10.66 0 0 1 256.001 256c-.001 47.052-38.282 85.333-85.334 85.333zM281.462 192h111.082c-5.059 16.923-19.604 44.941-39.669 70.395-10.962-12.513-19.888-24.102-22.99-31.738-2.219-5.469-8.49-8.052-13.896-5.875-5.458 2.219-8.094 8.438-5.875 13.896 4.27 10.509 15.54 25.139 28.633 39.982-6.905 7.254-14.138 14.021-21.831 19.708L281.462 192zm89.457 268.383l-47.047-141.146 2.305-1.206c9.331-6.629 18.22-14.974 26.757-23.892 20.487 21.598 41.145 40.685 45.202 44.392a10.612 10.612 0 0 0 7.198 2.802c2.885 0 5.76-1.167 7.865-3.458 3.979-4.354 3.688-11.094-.656-15.073-9.986-9.145-28.384-26.732-45.41-44.732 24.28-29.934 42.332-64.243 47.283-86.07h22.919a10.66 10.66 0 0 0 10.667-10.667 10.66 10.66 0 0 0-10.667-10.667h-74.667V160a10.66 10.66 0 0 0-10.667-10.667A10.66 10.66 0 0 0 341.334 160v10.667h-66.982L225.324 23.576c10.066-1.323 20.255-2.242 30.676-2.242 129.396 0 234.667 105.271 234.667 234.667 0 87.64-48.375 164.089-119.748 204.382z"/></svg>