<svg xmlns="http://www.w3.org/2000/svg" width="412.351" height="412.351" viewBox="0 0 412.351 412.351"><path d="M126.192 354.953c0 4.438-3.857 9.44-8.571 11.119L8.572 404.861C3.856 406.539 0 404.279 0 399.84V57.399c0-4.438 3.856-9.441 8.572-11.119L117.621 7.49c4.714-1.677 8.571.582 8.571 5.021v342.442zm143.079 44.888c0 4.438-3.857 6.697-8.572 5.021l-109.048-38.79c-4.715-1.678-8.571-6.682-8.571-11.117V12.51c0-4.438 3.856-6.697 8.571-5.021l109.048 38.79c4.715 1.678 8.572 6.682 8.572 11.119v342.443zm143.08-44.888c0 4.438-3.854 9.44-8.571 11.119l-109.05 38.789c-4.715 1.678-8.571-.582-8.571-5.021V57.399c0-4.438 3.856-9.441 8.571-11.119L403.779 7.49c4.717-1.677 8.571.582 8.571 5.021v342.442z"/></svg>