<svg id="Capa_1" xmlns="http://www.w3.org/2000/svg" viewBox="0 0 412.4 412.4"><style>.st0{fill:#262626}</style><path class="st0" d="M133 340.2c0 4-3.5 8.5-7.7 10l-97.6 34.7c-4.2 1.5-7.7-.5-7.7-4.5V73.8c0-4 3.5-8.5 7.7-10l97.6-34.7c4.2-1.5 7.7.5 7.7 4.5v306.6zm128.1 40.2c0 4-3.5 6-7.7 4.5l-97.6-34.7c-4.2-1.5-7.7-6-7.7-10V33.6c0-4 3.5-6 7.7-4.5l97.6 34.7c4.2 1.5 7.7 6 7.7 10v306.6zm128.1-40.2c0 4-3.5 8.5-7.7 10l-97.6 34.7c-4.2 1.5-7.7-.5-7.7-4.5V73.8c0-4 3.5-8.5 7.7-10l97.6-34.7c4.2-1.5 7.7.5 7.7 4.5v306.6z" id="Layer_5_68_"/></svg>