<svg id="Capa_1" xmlns="http://www.w3.org/2000/svg" viewBox="0 0 512 512"><style>.st0{display:none;fill:#fff}.st1{fill:#262626}</style><g id="cLH7Zq.tif"><path class="st0" d="M471.5 483H79.6V16.5h391.9V483zm-224.8-2.1c0-.2.1-.3.1-.5-.1-.1-.3-.2-.4-.2-.8-.3-1.6-.5-2.4-.8-24.5-7.3-45.1-20.7-62.1-39.7-12.1-13.5-21-28.8-26.6-46-10.2-31.8-9.4-63.5 2.2-94.7 6.9-18.3 19-32.9 35-44.2 16.4-11.6 34.9-18.1 54.3-22.3 21.6-4.7 43.5-5.7 65.5-5.7 3.1 0 3.1 0 3.1 3.2v87.2c52-50 103.5-99.5 155.1-149.2-51.6-50.1-103.1-100-155-150.3v72.7c0 4.4.8 4.2-4 4.2-27.9.1-55.4 3.2-82.4 10-26.6 6.6-51.8 16.5-74.6 32-29.1 19.7-49.9 45.8-61.6 79-9.2 26.1-12.1 53.1-10.6 80.7 1.6 30.8 10.3 59.5 25.4 86.3 12.9 23 30 42.6 50.8 58.8 19.6 15.3 41.3 26.6 65.1 33.8 7.6 2 15.4 3.8 23.1 5.7z"/><path class="st1" d="M246.7 480.9c-7.7-2-15.5-3.7-23.1-6-23.8-7.1-45.5-18.5-65.1-33.8-20.8-16.2-37.9-35.8-50.8-58.8C92.6 355.5 84 326.8 82.3 296c-1.5-27.5 1.4-54.6 10.6-80.7 11.7-33.2 32.5-59.3 61.6-79 22.8-15.4 48-25.4 74.6-32 27.1-6.7 54.6-9.8 82.4-10 4.8 0 4 .3 4-4.2V17.4C367.4 68 418.9 117.9 470.6 168c-51.6 49.7-103.1 99.2-155.1 149.2V230c0-3.2 0-3.2-3.1-3.2-22 0-43.9 1.1-65.5 5.7-19.4 4.2-37.9 10.7-54.3 22.3-16 11.3-28.2 25.9-35 44.2-11.7 31.2-12.5 62.9-2.2 94.7 5.6 17.2 14.5 32.6 26.6 46 17 19 37.6 32.4 62.1 39.7.8.2 1.6.5 2.4.8.1 0 .3.1.4.2-.2.2-.2.3-.2.5z"/></g></svg>